<svg width="22" height="24" viewBox="0 0 22 24" fill="none" xmlns="http://www.w3.org/2000/svg">
<path fill-rule="evenodd" clip-rule="evenodd" d="M2 3C2 2.20435 2.31607 1.44129 2.87868 0.87868C3.44129 0.31607 4.20435 0 5 0H17C17.7956 0 18.5587 0.31607 19.1213 0.87868C19.6839 1.44129 20 2.20435 20 3V21C20.3978 21 20.7794 21.158 21.0607 21.4393C21.342 21.7206 21.5 22.1022 21.5 22.5C21.5 22.8978 21.342 23.2794 21.0607 23.5607C20.7794 23.842 20.3978 24 20 24H15.5C15.1022 24 14.7206 23.842 14.4393 23.5607C14.158 23.2794 14 22.8978 14 22.5V19.5C14 19.1022 13.842 18.7206 13.5607 18.4393C13.2794 18.158 12.8978 18 12.5 18H9.5C9.10218 18 8.72064 18.158 8.43934 18.4393C8.15804 18.7206 8 19.1022 8 19.5V22.5C8 22.8978 7.84196 23.2794 7.56066 23.5607C7.27936 23.842 6.89782 24 6.5 24H2C1.60218 24 1.22064 23.842 0.93934 23.5607C0.658035 23.2794 0.5 22.8978 0.5 22.5C0.5 22.1022 0.658035 21.7206 0.93934 21.4393C1.22064 21.158 1.60218 21 2 21V3ZM6.5 4.5H9.5V7.5H6.5V4.5ZM9.5 10.5H6.5V13.5H9.5V10.5ZM12.5 4.5H15.5V7.5H12.5V4.5ZM15.5 10.5H12.5V13.5H15.5V10.5Z" fill="#0096EB"/>
</svg>
