<svg width="18" height="20" viewBox="0 0 18 20" fill="none" xmlns="http://www.w3.org/2000/svg">
    <path fill-rule="evenodd" clip-rule="evenodd" d="M9 6.875C8.1712 6.875 7.37634 7.20424 6.79029 7.79029C6.20424 8.37634 5.875 9.1712 5.875 10C5.875 10.8288 6.20424 11.6237 6.79029 12.2097C7.37634 12.7958 8.1712 13.125 9 13.125C9.8288 13.125 10.6237 12.7958 11.2097 12.2097C11.7958 11.6237 12.125 10.8288 12.125 10C12.125 9.1712 11.7958 8.37634 11.2097 7.79029C10.6237 7.20424 9.8288 6.875 9 6.875ZM7.125 10C7.125 9.50272 7.32254 9.02581 7.67417 8.67417C8.02581 8.32254 8.50272 8.125 9 8.125C9.49728 8.125 9.97419 8.32254 10.3258 8.67417C10.6775 9.02581 10.875 9.50272 10.875 10C10.875 10.4973 10.6775 10.9742 10.3258 11.3258C9.97419 11.6775 9.49728 11.875 9 11.875C8.50272 11.875 8.02581 11.6775 7.67417 11.3258C7.32254 10.9742 7.125 10.4973 7.125 10Z" fill="#4D5E80"/>
    <path fill-rule="evenodd" clip-rule="evenodd" d="M9.00008 2.70833C5.23841 2.70833 2.70425 4.96167 1.23341 6.8725L1.20758 6.90667C0.874248 7.33917 0.568415 7.73667 0.360915 8.20667C0.138415 8.71083 0.041748 9.26 0.041748 10C0.041748 10.74 0.138415 11.2892 0.360915 11.7933C0.569248 12.2633 0.875081 12.6617 1.20758 13.0933L1.23425 13.1275C2.70425 15.0383 5.23841 17.2917 9.00008 17.2917C12.7617 17.2917 15.2959 15.0383 16.7667 13.1275L16.7926 13.0933C17.1259 12.6617 17.4317 12.2633 17.6392 11.7933C17.8617 11.2892 17.9584 10.74 17.9584 10C17.9584 9.26 17.8617 8.71083 17.6392 8.20667C17.4309 7.73667 17.1251 7.33917 16.7926 6.90667L16.7659 6.8725C15.2959 4.96167 12.7617 2.70833 9.00008 2.70833ZM2.22508 7.635C3.58175 5.87083 5.79175 3.95833 9.00008 3.95833C12.2084 3.95833 14.4176 5.87083 15.7751 7.635C16.1417 8.11 16.3551 8.39333 16.4959 8.71167C16.6276 9.01 16.7084 9.37417 16.7084 10C16.7084 10.6258 16.6276 10.99 16.4959 11.2883C16.3551 11.6067 16.1409 11.89 15.7759 12.365C14.4167 14.1292 12.2084 16.0417 9.00008 16.0417C5.79175 16.0417 3.58258 14.1292 2.22508 12.365C1.85841 11.89 1.64508 11.6067 1.50425 11.2883C1.37258 10.99 1.29175 10.6258 1.29175 10C1.29175 9.37417 1.37258 9.01 1.50425 8.71167C1.64508 8.39333 1.86008 8.11 2.22508 7.635Z" fill="#4D5E80"/>
    <path d="M14.5 2.5L2.5 18.5" stroke="white" stroke-width="2" stroke-linecap="round"/>
    <path d="M13.5 1.5L1.5 17.5" stroke="#4D5E80" stroke-width="2" stroke-linecap="round"/>
</svg>
