<svg width="18" height="16" viewBox="0 0 18 16" fill="none" xmlns="http://www.w3.org/2000/svg">
<path fill-rule="evenodd" clip-rule="evenodd" d="M9 4.875C8.1712 4.875 7.37634 5.20424 6.79029 5.79029C6.20424 6.37634 5.875 7.1712 5.875 8C5.875 8.8288 6.20424 9.62366 6.79029 10.2097C7.37634 10.7958 8.1712 11.125 9 11.125C9.8288 11.125 10.6237 10.7958 11.2097 10.2097C11.7958 9.62366 12.125 8.8288 12.125 8C12.125 7.1712 11.7958 6.37634 11.2097 5.79029C10.6237 5.20424 9.8288 4.875 9 4.875ZM7.125 8C7.125 7.50272 7.32254 7.02581 7.67417 6.67417C8.02581 6.32254 8.50272 6.125 9 6.125C9.49728 6.125 9.97419 6.32254 10.3258 6.67417C10.6775 7.02581 10.875 7.50272 10.875 8C10.875 8.49728 10.6775 8.97419 10.3258 9.32582C9.97419 9.67746 9.49728 9.875 9 9.875C8.50272 9.875 8.02581 9.67746 7.67417 9.32582C7.32254 8.97419 7.125 8.49728 7.125 8Z" fill="#4D5E80"/>
<path fill-rule="evenodd" clip-rule="evenodd" d="M9.00008 0.708336C5.23841 0.708336 2.70425 2.96167 1.23341 4.8725L1.20758 4.90667C0.874248 5.33917 0.568415 5.73667 0.360915 6.20667C0.138415 6.71084 0.041748 7.26 0.041748 8C0.041748 8.74 0.138415 9.28917 0.360915 9.79334C0.569248 10.2633 0.875081 10.6617 1.20758 11.0933L1.23425 11.1275C2.70425 13.0383 5.23841 15.2917 9.00008 15.2917C12.7617 15.2917 15.2959 13.0383 16.7667 11.1275L16.7926 11.0933C17.1259 10.6617 17.4317 10.2633 17.6392 9.79334C17.8617 9.28917 17.9584 8.74 17.9584 8C17.9584 7.26 17.8617 6.71084 17.6392 6.20667C17.4309 5.73667 17.1251 5.33917 16.7926 4.90667L16.7659 4.8725C15.2959 2.96167 12.7617 0.708336 9.00008 0.708336ZM2.22508 5.635C3.58175 3.87084 5.79175 1.95834 9.00008 1.95834C12.2084 1.95834 14.4176 3.87084 15.7751 5.635C16.1417 6.11 16.3551 6.39334 16.4959 6.71167C16.6276 7.01 16.7084 7.37417 16.7084 8C16.7084 8.62584 16.6276 8.99 16.4959 9.28834C16.3551 9.60667 16.1409 9.89 15.7759 10.365C14.4167 12.1292 12.2084 14.0417 9.00008 14.0417C5.79175 14.0417 3.58258 12.1292 2.22508 10.365C1.85841 9.89 1.64508 9.60667 1.50425 9.28834C1.37258 8.99 1.29175 8.62584 1.29175 8C1.29175 7.37417 1.37258 7.01 1.50425 6.71167C1.64508 6.39334 1.86008 6.11 2.22508 5.635Z" fill="#4D5E80"/>
</svg>
