<svg width="37" height="36" viewBox="0 0 37 36" fill="none" xmlns="http://www.w3.org/2000/svg">
    <g clip-path="url(#clip0_2030_2317)">
        <path d="M35.6584 20.2369C35.7634 19.5017 35.8175 18.7602 35.8206 18.0176C35.8205 13.547 34.0445 9.25959 30.8833 6.09844C27.7221 2.93729 23.4347 1.16135 18.9641 1.16127C18.2216 1.16437 17.4801 1.21851 16.7449 1.32327C12.5899 -0.916041 7.45777 -0.163838 4.12032 3.1739C0.782867 6.51163 0.0305228 11.6433 2.26984 15.7984C2.16507 16.5336 2.11093 17.2749 2.10769 18.0176C2.10769 27.3272 9.65462 34.874 18.9641 34.874C19.7066 34.8709 20.4483 34.8168 21.1835 34.712C25.3384 36.9513 30.4704 36.1991 33.8081 32.8614C37.1455 29.5239 37.8979 24.3918 35.6584 20.2369Z" fill="white"/>
        <path d="M11.6581 21.384C17.5523 21.384 22.3306 16.6058 22.3306 10.7115C22.3306 4.81731 17.5523 0.039093 11.6581 0.039093C5.76388 0.039093 0.985657 4.81731 0.985657 10.7115C0.985657 16.6058 5.76388 21.384 11.6581 21.384Z" fill="url(#paint0_linear_2030_2317)"/>
        <path d="M26.2703 35.9962C32.1645 35.9962 36.9427 31.218 36.9427 25.3238C36.9427 19.4295 32.1645 14.6513 26.2703 14.6513C20.3761 14.6513 15.5978 19.4295 15.5978 25.3238C15.5978 31.218 20.3761 35.9962 26.2703 35.9962Z" fill="url(#paint1_linear_2030_2317)"/>
        <mask id="mask0_2030_2317" style="mask-type:luminance" maskUnits="userSpaceOnUse" x="0" y="-1" width="37" height="37">
            <path d="M26.2703 14.6513C24.3622 14.6508 22.489 15.1632 20.8468 16.1349C23.5939 11.5027 22.4639 5.54961 18.2102 2.24619C13.9568 -1.05751 7.90946 -0.678809 4.10105 3.1296C0.292785 6.93786 -0.0859183 12.9853 3.21764 17.2388C6.52107 21.4924 12.474 22.6225 17.1065 19.8754C14.6469 24.0438 15.3004 29.3456 18.6986 32.792C22.097 36.2385 27.389 36.9665 31.5917 34.5658C35.7944 32.165 37.8554 27.2367 36.6127 22.5589C35.3701 17.881 31.1354 14.6251 26.2951 14.6264L26.2703 14.6513Z" fill="white"/>
        </mask>
        <g mask="url(#mask0_2030_2317)">
            <path d="M18.6265 38.7267C29.6404 38.7267 38.5688 29.7982 38.5688 18.7844C38.5688 7.77055 29.6404 -1.15793 18.6265 -1.15793C7.61268 -1.15793 -1.3158 7.77055 -1.3158 18.7844C-1.3158 29.7982 7.61268 38.7267 18.6265 38.7267Z" fill="url(#paint2_radial_2030_2317)"/>
        </g>
        <path d="M18.9641 34.874C28.2737 34.874 35.8205 27.3271 35.8205 18.0176C35.8205 8.70802 28.2737 1.16113 18.9641 1.16113C9.65455 1.16113 2.10767 8.70802 2.10767 18.0176C2.10767 27.3271 9.65455 34.874 18.9641 34.874Z" fill="url(#paint3_linear_2030_2317)"/>
        <path d="M18.9641 34.874C28.2737 34.874 35.8205 27.3271 35.8205 18.0176C35.8205 8.70802 28.2737 1.16113 18.9641 1.16113C9.65455 1.16113 2.10767 8.70802 2.10767 18.0176C2.10767 27.3271 9.65455 34.874 18.9641 34.874Z" fill="url(#paint4_linear_2030_2317)"/>
        <path d="M12.8175 15.948C12.4211 15.2046 12.2236 14.3715 12.2441 13.5293C12.2186 12.4648 12.5821 11.4276 13.2664 10.6119C13.9864 9.79945 14.9061 9.18917 15.9345 8.84138C17.0516 8.44708 18.2284 8.24884 19.413 8.2554C20.1894 8.25009 20.965 8.30845 21.7319 8.42991C22.2787 8.52153 22.8167 8.65918 23.3404 8.84138C23.8159 9.00563 24.244 9.28388 24.5871 9.6518C24.8491 9.94701 24.9914 10.3294 24.9861 10.7241C24.9957 10.931 24.9643 11.1377 24.8937 11.3324C24.823 11.5272 24.7146 11.706 24.5746 11.8586C24.444 11.9977 24.2853 12.1074 24.109 12.1805C23.9328 12.2536 23.743 12.2883 23.5523 12.2825C23.2853 12.2785 23.0221 12.2191 22.7793 12.108C22.192 11.8478 21.588 11.627 20.9714 11.447C20.3978 11.2971 19.8064 11.2258 19.2136 11.2352C18.4452 11.2095 17.685 11.3995 17.0191 11.7837C16.7388 11.9539 16.5098 12.1967 16.3562 12.4865C16.2025 12.7762 16.1301 13.102 16.1464 13.4296C16.1419 13.8556 16.3028 14.2667 16.5953 14.5765C16.9531 14.9455 17.3757 15.2456 17.8421 15.4617C18.3532 15.7111 19.0888 16.0477 20.1361 16.4717L20.4602 16.5963C21.4492 16.9732 22.3975 17.4494 23.2904 18.0176C24.0019 18.4788 24.6023 19.092 25.0484 19.8129C25.487 20.5693 25.7071 21.4325 25.6843 22.3065C25.7196 23.3772 25.4092 24.4307 24.7991 25.3112C24.1731 26.1583 23.303 26.7935 22.3055 27.1316C21.1259 27.5523 19.8796 27.755 18.6274 27.73C16.9155 27.7866 15.2122 27.463 13.6403 26.7825C13.2377 26.6012 12.8832 26.3279 12.6056 25.9846C12.3873 25.6609 12.2741 25.2777 12.2815 24.8874C12.2678 24.6817 12.2998 24.4756 12.3753 24.2837C12.4507 24.0919 12.5677 23.9191 12.7178 23.7779C13.0295 23.502 13.4366 23.3588 13.8524 23.3788C14.3172 23.3855 14.774 23.5007 15.1864 23.7154C15.6975 23.9648 16.0965 24.1643 16.4331 24.2889C16.7668 24.43 17.1134 24.5386 17.468 24.613C17.9055 24.7125 18.3535 24.7586 18.8021 24.7503C19.5961 24.8088 20.3867 24.5979 21.0462 24.1518C21.2953 23.9611 21.4945 23.7129 21.627 23.4285C21.7594 23.1442 21.8211 22.832 21.8067 22.5186C21.8187 22.0569 21.6485 21.609 21.3329 21.2718C20.9263 20.8572 20.4546 20.5119 19.9365 20.2494C19.3257 19.9252 18.4529 19.5387 17.3434 19.065C16.3463 18.668 15.3901 18.1753 14.4882 17.5937C13.8137 17.1451 13.2258 16.6478 12.8175 15.948Z" fill="white"/>
    </g>
    <defs>
        <linearGradient id="paint0_linear_2030_2317" x1="901.164" y1="12.5045" x2="1235.3" y2="2122.06" gradientUnits="userSpaceOnUse">
            <stop offset="0.01" stop-color="#00B7F0"/>
            <stop offset="0.34" stop-color="#009DE5"/>
            <stop offset="0.76" stop-color="#0082D9"/>
            <stop offset="1" stop-color="#0078D4"/>
        </linearGradient>
        <linearGradient id="paint1_linear_2030_2317" x1="157.734" y1="1615.52" x2="2007.95" y2="548.274" gradientUnits="userSpaceOnUse">
            <stop stop-color="#0078D4"/>
            <stop offset="0.37" stop-color="#007AD5"/>
            <stop offset="0.57" stop-color="#0082D9"/>
            <stop offset="0.74" stop-color="#0090DF"/>
            <stop offset="0.88" stop-color="#00A3E7"/>
            <stop offset="1" stop-color="#00BCF2"/>
        </linearGradient>
        <radialGradient id="paint2_radial_2030_2317" cx="0" cy="0" r="1" gradientUnits="userSpaceOnUse" gradientTransform="translate(1934.64 1993.07) scale(1995.07)">
            <stop/>
            <stop offset="1" stop-opacity="0"/>
        </radialGradient>
        <linearGradient id="paint3_linear_2030_2317" x1="1028.19" y1="544.748" x2="2713.84" y2="3464.72" gradientUnits="userSpaceOnUse">
            <stop stop-color="#00B7F0"/>
            <stop offset="1" stop-color="#007CC1"/>
        </linearGradient>
        <linearGradient id="paint4_linear_2030_2317" x1="1540.63" y1="3366.21" x2="1834.87" y2="7.39809" gradientUnits="userSpaceOnUse">
            <stop stop-color="#0078D4"/>
            <stop offset="1" stop-color="#00BCF2"/>
        </linearGradient>
        <clipPath id="clip0_2030_2317">
            <rect width="36" height="36" fill="white" transform="translate(0.971436)"/>
        </clipPath>
    </defs>
</svg>
