<svg width="37" height="36" viewBox="0 0 37 36" fill="none" xmlns="http://www.w3.org/2000/svg">
    <g clip-path="url(#clip0_2030_2315)">
        <path d="M18.9714 0.720001C9.42781 0.720001 1.69141 8.4564 1.69141 18C1.69141 27.5436 9.42781 35.28 18.9714 35.28C28.515 35.28 36.2514 27.5436 36.2514 18C36.2514 8.4564 28.515 0.720001 18.9714 0.720001ZM26.0004 14.8752C26.0076 15.0228 26.0094 15.1704 26.0094 15.3144C26.0094 19.8144 22.5876 25.0002 16.3272 25.0002C14.4773 25.0033 12.6659 24.472 11.1108 23.4702C11.3754 23.5026 11.6472 23.5152 11.9226 23.5152C13.5174 23.5152 14.9844 22.9734 16.149 22.059C15.4393 22.0451 14.7516 21.8101 14.1818 21.3867C13.612 20.9634 13.1885 20.3729 12.9702 19.6974C13.4799 19.7943 14.0049 19.774 14.5056 19.638C13.7353 19.4822 13.0426 19.0648 12.5449 18.4566C12.0472 17.8484 11.7752 17.0867 11.775 16.3008V16.2594C12.234 16.5132 12.7596 16.668 13.3176 16.686C12.5954 16.2053 12.0842 15.4668 11.8885 14.6216C11.6928 13.7765 11.8273 12.8885 12.2646 12.1392C13.1195 13.1904 14.1857 14.0503 15.394 14.6634C16.6024 15.2764 17.926 15.6288 19.2792 15.6978C19.1072 14.9676 19.1812 14.2009 19.4898 13.5171C19.7984 12.8333 20.3243 12.2706 20.9857 11.9165C21.6471 11.5624 22.407 11.4367 23.1472 11.559C23.8874 11.6813 24.5665 12.0447 25.0788 12.5928C25.8405 12.4421 26.571 12.1627 27.2388 11.7666C26.9849 12.5552 26.4534 13.2249 25.743 13.6512C26.4177 13.5699 27.0766 13.3885 27.6978 13.113C27.2415 13.7968 26.6666 14.3936 26.0004 14.8752Z" fill="#0096EB"/>
    </g>
    <defs>
        <clipPath id="clip0_2030_2315">
            <rect width="36" height="36" fill="white" transform="translate(0.971436)"/>
        </clipPath>
    </defs>
</svg>
