<svg width="35" height="36" viewBox="0 0 35 36" fill="none" xmlns="http://www.w3.org/2000/svg">
    <g clip-path="url(#clip0_2030_2311)">
        <path d="M0.746296 17.7846C0.745476 20.8093 1.51922 23.7627 2.99048 26.3658L0.605591 35.2601L9.51675 32.8734C11.9815 34.2439 14.743 34.9621 17.5492 34.9623H17.5566C26.8206 34.9623 34.3618 27.2623 34.3657 17.7981C34.3675 13.212 32.6206 8.89954 29.4466 5.65508C26.2733 2.41089 22.0528 0.623309 17.5559 0.621216C8.29084 0.621216 0.750258 8.32075 0.746433 17.7846" fill="url(#paint0_linear_2030_2311)"/>
        <path d="M0.14617 17.779C0.145213 20.9125 0.946687 23.9715 2.4704 26.6679L0 35.881L9.23068 33.4088C11.774 34.8253 14.6376 35.572 17.5514 35.5732H17.5589C27.1553 35.5732 34.9673 27.5962 34.9714 17.7932C34.9731 13.0423 33.1633 8.57484 29.876 5.21414C26.5883 1.85386 22.2168 0.00195349 17.5589 0C7.96092 0 0.149995 7.97581 0.14617 17.779ZM5.64338 26.2035L5.29872 25.6447C3.84986 23.2916 3.08514 20.5723 3.08623 17.7801C3.08923 9.63195 9.58135 3.00279 17.5644 3.00279C21.4304 3.00447 25.0636 4.54381 27.7963 7.33674C30.5288 10.13 32.0325 13.843 32.0315 17.7921C32.028 25.9402 25.5357 32.5702 17.5589 32.5702H17.5532C14.9559 32.5688 12.4086 31.8564 10.1871 30.51L9.6584 30.1898L4.18073 31.6567L5.64338 26.2035Z" fill="url(#paint1_linear_2030_2311)"/>
        <path d="M13.2069 10.3462C12.881 9.60627 12.538 9.59134 12.228 9.57836C11.9742 9.5672 11.684 9.56804 11.3941 9.56804C11.104 9.56804 10.6326 9.67953 10.2341 10.1239C9.83519 10.5688 8.71118 11.6438 8.71118 13.8301C8.71118 16.0165 10.2703 18.1296 10.4876 18.4264C10.7052 18.7226 13.4975 23.353 17.9197 25.1343C21.595 26.6146 22.3429 26.3202 23.1406 26.2459C23.9384 26.172 25.7148 25.1712 26.0772 24.1335C26.4399 23.0959 26.4399 22.2066 26.3312 22.0207C26.2224 21.8355 25.9323 21.7243 25.4972 21.5022C25.0621 21.28 22.923 20.2048 22.5242 20.0565C22.1253 19.9083 21.8353 19.8343 21.5451 20.2793C21.255 20.7236 20.4218 21.7243 20.1679 22.0207C19.9142 22.3178 19.6602 22.3547 19.2253 22.1325C18.7899 21.9095 17.3887 21.4408 15.7264 19.927C14.433 18.749 13.5598 17.2944 13.306 16.8494C13.0521 16.4051 13.2788 16.1643 13.4969 15.9428C13.6924 15.7437 13.9322 15.4239 14.1499 15.1645C14.3669 14.905 14.4393 14.7198 14.5843 14.4234C14.7295 14.1268 14.6569 13.8672 14.5483 13.645C14.4393 13.4227 13.5938 11.2249 13.2069 10.3462Z" fill="white"/>
    </g>
    <defs>
        <linearGradient id="paint0_linear_2030_2311" x1="1688.61" y1="3464.5" x2="1688.61" y2="0.621216" gradientUnits="userSpaceOnUse">
            <stop stop-color="#1FAF38"/>
            <stop offset="1" stop-color="#60D669"/>
        </linearGradient>
        <linearGradient id="paint1_linear_2030_2311" x1="1748.57" y1="3588.1" x2="1748.57" y2="0" gradientUnits="userSpaceOnUse">
            <stop stop-color="#F9F9F9"/>
            <stop offset="1" stop-color="white"/>
        </linearGradient>
        <clipPath id="clip0_2030_2311">
            <rect width="34.9714" height="36" fill="white"/>
        </clipPath>
    </defs>
</svg>
