<svg width="72" height="30" viewBox="0 0 72 30" fill="none" xmlns="http://www.w3.org/2000/svg">
    <rect width="72" height="30" rx="15" fill="#0389D5"/>
    <path d="M22.6681 11.92L20.2881 19H17.4181L15.0381 11.92H17.3981L18.8581 16.79L20.3081 11.92H22.6681ZM24.285 12.91C23.8984 12.91 23.5884 12.8067 23.355 12.6C23.1217 12.3933 23.005 12.1333 23.005 11.82C23.005 11.5 23.1217 11.2367 23.355 11.03C23.5884 10.8167 23.8984 10.71 24.285 10.71C24.665 10.71 24.9717 10.8167 25.205 11.03C25.4384 11.2367 25.555 11.5 25.555 11.82C25.555 12.1333 25.4384 12.3933 25.205 12.6C24.9717 12.8067 24.665 12.91 24.285 12.91ZM25.385 13.36V19H23.165V13.36H25.385ZM31.8477 16.13C31.8477 16.2833 31.8377 16.43 31.8177 16.57H28.2477C28.281 17.0567 28.4844 17.3 28.8577 17.3C29.0977 17.3 29.271 17.19 29.3777 16.97H31.7277C31.6477 17.37 31.4777 17.73 31.2177 18.05C30.9644 18.3633 30.641 18.6133 30.2477 18.8C29.861 18.98 29.4344 19.07 28.9677 19.07C28.4077 19.07 27.9077 18.9533 27.4677 18.72C27.0344 18.4867 26.6944 18.1533 26.4477 17.72C26.2077 17.28 26.0877 16.7667 26.0877 16.18C26.0877 15.5933 26.2077 15.0833 26.4477 14.65C26.6944 14.21 27.0344 13.8733 27.4677 13.64C27.9077 13.4067 28.4077 13.29 28.9677 13.29C29.5277 13.29 30.0244 13.4067 30.4577 13.64C30.8977 13.8667 31.2377 14.1933 31.4777 14.62C31.7244 15.0467 31.8477 15.55 31.8477 16.13ZM29.5977 15.6C29.5977 15.4133 29.5377 15.2733 29.4177 15.18C29.2977 15.08 29.1477 15.03 28.9677 15.03C28.5744 15.03 28.3444 15.22 28.2777 15.6H29.5977ZM41.1098 13.36L39.7698 19H37.2698L36.5898 15.82L35.8698 19H33.3698L32.0398 13.36H34.2398L34.7098 16.79L35.4398 13.36H37.8098L38.5798 16.83L39.0598 13.36H41.1098ZM47.8222 17.93H45.4622L45.1122 19H42.7822L45.3722 11.92H47.9322L50.5122 19H48.1722L47.8222 17.93ZM47.2822 16.26L46.6422 14.29L46.0022 16.26H47.2822ZM53.2366 11.6V19H51.0166V11.6H53.2366ZM56.4593 11.6V19H54.2393V11.6H56.4593Z" fill="white"/>
</svg>
